<mxfile host="app.diagrams.net" modified="2022-02-02T13:58:47.320Z" agent="5.0 (Windows NT 10.0; Win64; x64) AppleWebKit/537.36 (KHTML, like Gecko) Chrome/97.0.4692.99 Safari/537.36" etag="wkyh_K4ZmQCx5ElMSItW" version="16.5.3" type="github">
  <diagram id="6a731a19-8d31-9384-78a2-239565b7b9f0" name="Page-1">
    <mxGraphModel dx="2844" dy="1588" grid="1" gridSize="10" guides="1" tooltips="1" connect="1" arrows="1" fold="1" page="1" pageScale="1" pageWidth="4681" pageHeight="3300" background="none" math="0" shadow="1">
      <root>
        <mxCell id="0" />
        <mxCell id="1" parent="0" />
        <mxCell id="1745" value="" style="edgeStyle=none;rounded=0;jumpStyle=none;shadow=1;labelBackgroundColor=none;startArrow=classic;startFill=1;endArrow=none;endFill=0;jettySize=auto;orthogonalLoop=1;strokeColor=#2F5B7C;strokeWidth=5;fontFamily=Helvetica;fontSize=19;fontColor=#23445D;spacing=5;sketch=0;labelBorderColor=none;html=1;" parent="1" source="1749" target="1764" edge="1">
          <mxGeometry relative="1" as="geometry" />
        </mxCell>
        <mxCell id="1746" value="" style="edgeStyle=none;rounded=0;jumpStyle=none;shadow=1;labelBackgroundColor=none;startArrow=classic;startFill=1;endArrow=none;endFill=0;jettySize=auto;orthogonalLoop=1;strokeColor=#2F5B7C;strokeWidth=5;fontFamily=Helvetica;fontSize=19;fontColor=#23445D;spacing=5;sketch=0;labelBorderColor=none;html=1;" parent="1" source="1749" target="1771" edge="1">
          <mxGeometry relative="1" as="geometry" />
        </mxCell>
        <mxCell id="1747" value="" style="edgeStyle=none;rounded=0;jumpStyle=none;shadow=1;labelBackgroundColor=none;startArrow=classic;startFill=1;endArrow=none;endFill=0;jettySize=auto;orthogonalLoop=1;strokeColor=#2F5B7C;strokeWidth=5;fontFamily=Helvetica;fontSize=19;fontColor=#23445D;spacing=5;sketch=0;labelBorderColor=none;html=1;" parent="1" source="1749" target="1760" edge="1">
          <mxGeometry relative="1" as="geometry" />
        </mxCell>
        <mxCell id="1748" value="" style="edgeStyle=none;rounded=0;jumpStyle=none;shadow=1;labelBackgroundColor=none;startArrow=classic;startFill=1;endArrow=none;endFill=0;jettySize=auto;orthogonalLoop=1;strokeColor=#2F5B7C;strokeWidth=5;fontFamily=Helvetica;fontSize=19;fontColor=#23445D;spacing=5;sketch=0;labelBorderColor=none;html=1;" parent="1" source="1749" target="1753" edge="1">
          <mxGeometry relative="1" as="geometry" />
        </mxCell>
        <mxCell id="1749" value="CIIS" style="rounded=0;shadow=1;labelBackgroundColor=none;strokeColor=none;strokeWidth=5;fillColor=#2F5B7C;fontFamily=Helvetica;fontSize=19;fontColor=#FFFFFF;align=center;fontStyle=1;spacing=5;arcSize=7;perimeterSpacing=2;sketch=0;labelBorderColor=none;whiteSpace=wrap;html=1;" parent="1" vertex="1">
          <mxGeometry x="1911" y="1030" width="150" height="70" as="geometry" />
        </mxCell>
        <mxCell id="1750" value="" style="edgeStyle=none;rounded=0;jumpStyle=none;shadow=1;labelBackgroundColor=none;startArrow=classic;startFill=1;jettySize=auto;orthogonalLoop=1;strokeColor=#E85642;strokeWidth=5;fontFamily=Helvetica;fontSize=19;fontColor=#FFFFFF;spacing=5;fontStyle=1;fillColor=#b0e3e6;sketch=0;labelBorderColor=none;html=1;endArrow=none;endFill=0;" parent="1" source="1753" target="1756" edge="1">
          <mxGeometry relative="1" as="geometry" />
        </mxCell>
        <mxCell id="1751" value="" style="edgeStyle=none;rounded=0;jumpStyle=none;shadow=1;labelBackgroundColor=none;startArrow=classic;startFill=1;jettySize=auto;orthogonalLoop=1;strokeColor=#E85642;strokeWidth=5;fontFamily=Helvetica;fontSize=19;fontColor=#FFFFFF;spacing=5;fontStyle=1;fillColor=#b0e3e6;sketch=0;labelBorderColor=none;html=1;endArrow=none;endFill=0;" parent="1" source="1753" target="1755" edge="1">
          <mxGeometry relative="1" as="geometry" />
        </mxCell>
        <mxCell id="1752" value="" style="edgeStyle=none;rounded=0;jumpStyle=none;shadow=1;labelBackgroundColor=none;startArrow=classic;startFill=1;jettySize=auto;orthogonalLoop=1;strokeColor=#E85642;strokeWidth=5;fontFamily=Helvetica;fontSize=19;fontColor=#FFFFFF;spacing=5;fontStyle=1;fillColor=#b0e3e6;sketch=0;labelBorderColor=none;html=1;endArrow=none;endFill=0;" parent="1" source="1753" target="1754" edge="1">
          <mxGeometry relative="1" as="geometry" />
        </mxCell>
        <mxCell id="1753" value="Pobidky" style="rounded=0;shadow=1;labelBackgroundColor=none;strokeColor=none;strokeWidth=5;fillColor=#e85642;fontFamily=Helvetica;fontSize=19;fontColor=#FFFFFF;align=center;spacing=5;fontStyle=1;arcSize=7;perimeterSpacing=2;sketch=0;labelBorderColor=none;whiteSpace=wrap;html=1;" parent="1" vertex="1">
          <mxGeometry x="1310" y="1031" width="150" height="60" as="geometry" />
        </mxCell>
        <mxCell id="1754" value="" style="rounded=0;shadow=1;labelBackgroundColor=none;strokeColor=none;strokeWidth=5;fillColor=#f08e81;fontFamily=Helvetica;fontSize=19;fontColor=#FFFFFF;align=center;spacing=5;fontStyle=0;arcSize=7;perimeterSpacing=2;sketch=0;labelBorderColor=none;whiteSpace=wrap;html=1;" parent="1" vertex="1">
          <mxGeometry x="1160" y="1150" width="150" height="60" as="geometry" />
        </mxCell>
        <mxCell id="1755" value="" style="rounded=0;shadow=1;labelBackgroundColor=none;strokeColor=none;strokeWidth=5;fillColor=#f08e81;fontFamily=Helvetica;fontSize=19;fontColor=#FFFFFF;align=center;spacing=5;fontStyle=0;arcSize=7;perimeterSpacing=2;sketch=0;labelBorderColor=none;whiteSpace=wrap;html=1;" parent="1" vertex="1">
          <mxGeometry x="1109" y="1031" width="150" height="60" as="geometry" />
        </mxCell>
        <mxCell id="1756" value="" style="rounded=0;shadow=1;labelBackgroundColor=none;strokeColor=none;strokeWidth=5;fillColor=#f08e81;fontFamily=Helvetica;fontSize=19;fontColor=#FFFFFF;align=center;spacing=5;fontStyle=0;arcSize=7;perimeterSpacing=2;sketch=0;labelBorderColor=none;whiteSpace=wrap;html=1;" parent="1" vertex="1">
          <mxGeometry x="1160" y="900" width="150" height="60" as="geometry" />
        </mxCell>
        <mxCell id="1757" value="" style="edgeStyle=none;rounded=0;jumpStyle=none;shadow=1;labelBackgroundColor=none;startArrow=classic;startFill=1;endArrow=none;endFill=0;jettySize=auto;orthogonalLoop=1;strokeColor=#9999FF;strokeWidth=5;fontFamily=Helvetica;fontSize=19;fontColor=#FFFFFF;spacing=5;sketch=0;labelBorderColor=none;html=1;" parent="1" source="1760" target="1763" edge="1">
          <mxGeometry relative="1" as="geometry" />
        </mxCell>
        <mxCell id="1758" value="" style="edgeStyle=none;rounded=0;jumpStyle=none;shadow=1;labelBackgroundColor=none;startArrow=classic;startFill=1;endArrow=none;endFill=0;jettySize=auto;orthogonalLoop=1;strokeColor=#9999FF;strokeWidth=5;fontFamily=Helvetica;fontSize=19;fontColor=#FFFFFF;spacing=5;sketch=0;labelBorderColor=none;html=1;" parent="1" source="1760" target="1762" edge="1">
          <mxGeometry relative="1" as="geometry" />
        </mxCell>
        <mxCell id="1759" value="" style="edgeStyle=none;rounded=0;jumpStyle=none;shadow=1;labelBackgroundColor=none;startArrow=classic;startFill=1;endArrow=none;endFill=0;jettySize=auto;orthogonalLoop=1;strokeColor=#9999FF;strokeWidth=5;fontFamily=Helvetica;fontSize=19;fontColor=#FFFFFF;spacing=5;sketch=0;labelBorderColor=none;html=1;" parent="1" source="1760" target="1761" edge="1">
          <mxGeometry relative="1" as="geometry" />
        </mxCell>
        <mxCell id="1760" value="DatabazeÂ  (neprectu to)" style="rounded=0;shadow=1;labelBackgroundColor=none;strokeColor=none;strokeWidth=5;fillColor=#6666FF;fontFamily=Helvetica;fontSize=19;fontColor=#FFFFFF;align=center;spacing=5;fontStyle=1;arcSize=7;perimeterSpacing=2;sketch=0;labelBorderColor=none;whiteSpace=wrap;html=1;" parent="1" vertex="1">
          <mxGeometry x="1310" y="1444" width="150" height="60" as="geometry" />
        </mxCell>
        <mxCell id="1761" value="Investicni Projekty" style="rounded=0;shadow=1;labelBackgroundColor=none;strokeColor=#56517e;strokeWidth=5;fillColor=#d0cee2;fontFamily=Helvetica;fontSize=19;align=center;spacing=5;arcSize=7;perimeterSpacing=2;sketch=0;labelBorderColor=none;whiteSpace=wrap;html=1;" parent="1" vertex="1">
          <mxGeometry x="1510" y="1524" width="150" height="60" as="geometry" />
        </mxCell>
        <mxCell id="1762" value="" style="rounded=0;shadow=1;labelBackgroundColor=none;strokeColor=#56517e;strokeWidth=5;fillColor=#d0cee2;fontFamily=Helvetica;fontSize=19;align=center;spacing=5;arcSize=7;perimeterSpacing=2;sketch=0;labelBorderColor=none;whiteSpace=wrap;html=1;" parent="1" vertex="1">
          <mxGeometry x="1310" y="1590" width="150" height="60" as="geometry" />
        </mxCell>
        <mxCell id="1763" value="" style="rounded=0;shadow=1;labelBackgroundColor=none;strokeColor=#56517e;strokeWidth=5;fillColor=#d0cee2;fontFamily=Helvetica;fontSize=19;align=center;spacing=5;arcSize=7;perimeterSpacing=2;sketch=0;labelBorderColor=none;whiteSpace=wrap;html=1;" parent="1" vertex="1">
          <mxGeometry x="1110" y="1524" width="150" height="60" as="geometry" />
        </mxCell>
        <mxCell id="1764" value="Pasportizace" style="rounded=0;shadow=1;labelBackgroundColor=none;strokeColor=none;strokeWidth=5;fillColor=#F08705;fontFamily=Helvetica;fontSize=19;fontColor=#FFFFFF;align=center;spacing=5;fontStyle=1;arcSize=7;perimeterSpacing=2;sketch=0;labelBorderColor=none;whiteSpace=wrap;html=1;" parent="1" vertex="1">
          <mxGeometry x="1911" y="630" width="150" height="60" as="geometry" />
        </mxCell>
        <mxCell id="1765" value="" style="rounded=0;shadow=1;labelBackgroundColor=none;strokeColor=none;strokeWidth=5;fillColor=#f5af58;fontFamily=Helvetica;fontSize=19;fontColor=#FFFFFF;align=center;spacing=5;arcSize=7;perimeterSpacing=2;sketch=0;labelBorderColor=none;whiteSpace=wrap;html=1;" parent="1" vertex="1">
          <mxGeometry x="2111" y="540" width="150" height="60" as="geometry" />
        </mxCell>
        <mxCell id="1766" value="" style="edgeStyle=none;rounded=0;jumpStyle=none;shadow=1;labelBackgroundColor=none;startArrow=classic;startFill=1;endArrow=none;endFill=0;jettySize=auto;orthogonalLoop=1;strokeColor=#F08705;strokeWidth=5;fontFamily=Helvetica;fontSize=19;fontColor=#FFFFFF;spacing=5;sketch=0;labelBorderColor=none;html=1;" parent="1" source="1764" target="1765" edge="1">
          <mxGeometry relative="1" as="geometry" />
        </mxCell>
        <mxCell id="1767" value="" style="rounded=0;shadow=1;labelBackgroundColor=none;strokeColor=none;strokeWidth=5;fillColor=#f5af58;fontFamily=Helvetica;fontSize=19;fontColor=#FFFFFF;align=center;spacing=5;arcSize=7;perimeterSpacing=2;sketch=0;labelBorderColor=none;whiteSpace=wrap;html=1;" parent="1" vertex="1">
          <mxGeometry x="1911" y="480" width="150" height="60" as="geometry" />
        </mxCell>
        <mxCell id="1768" value="" style="edgeStyle=none;rounded=0;jumpStyle=none;shadow=1;labelBackgroundColor=none;startArrow=classic;startFill=1;endArrow=none;endFill=0;jettySize=auto;orthogonalLoop=1;strokeColor=#F08705;strokeWidth=5;fontFamily=Helvetica;fontSize=19;fontColor=#FFFFFF;spacing=5;sketch=0;labelBorderColor=none;html=1;" parent="1" source="1764" target="1767" edge="1">
          <mxGeometry relative="1" as="geometry" />
        </mxCell>
        <mxCell id="1769" value="" style="rounded=0;shadow=1;labelBackgroundColor=none;strokeColor=none;strokeWidth=5;fillColor=#f5af58;fontFamily=Helvetica;fontSize=19;fontColor=#FFFFFF;align=center;spacing=5;arcSize=7;perimeterSpacing=2;sketch=0;labelBorderColor=none;whiteSpace=wrap;html=1;" parent="1" vertex="1">
          <mxGeometry x="1711" y="540" width="150" height="60" as="geometry" />
        </mxCell>
        <mxCell id="1770" value="" style="edgeStyle=none;rounded=0;jumpStyle=none;shadow=1;labelBackgroundColor=none;startArrow=classic;startFill=1;endArrow=none;endFill=0;jettySize=auto;orthogonalLoop=1;strokeColor=#F08705;strokeWidth=5;fontFamily=Helvetica;fontSize=19;fontColor=#FFFFFF;spacing=5;sketch=0;labelBorderColor=none;html=1;" parent="1" source="1764" target="1769" edge="1">
          <mxGeometry relative="1" as="geometry" />
        </mxCell>
        <mxCell id="1771" value="Databaze VaV" style="rounded=0;shadow=1;labelBackgroundColor=none;strokeColor=none;strokeWidth=5;fillColor=#12aab5;fontFamily=Helvetica;fontSize=19;fontColor=#FFFFFF;align=center;spacing=5;fontStyle=1;arcSize=7;perimeterSpacing=2;sketch=0;labelBorderColor=none;whiteSpace=wrap;html=1;" parent="1" vertex="1">
          <mxGeometry x="2460" y="631" width="150" height="60" as="geometry" />
        </mxCell>
        <mxCell id="1772" value="" style="rounded=0;shadow=1;labelBackgroundColor=none;strokeColor=none;strokeWidth=5;fillColor=#61c6ce;fontFamily=Helvetica;fontSize=19;fontColor=#FFFFFF;align=center;spacing=5;fontStyle=0;arcSize=7;perimeterSpacing=2;sketch=0;labelBorderColor=none;whiteSpace=wrap;html=1;" parent="1" vertex="1">
          <mxGeometry x="2540" y="770" width="150" height="60" as="geometry" />
        </mxCell>
        <mxCell id="1773" value="" style="edgeStyle=none;rounded=0;jumpStyle=none;shadow=1;labelBackgroundColor=none;startArrow=classic;startFill=1;jettySize=auto;orthogonalLoop=1;strokeColor=#12AAB5;strokeWidth=5;fontFamily=Helvetica;fontSize=19;fontColor=#FFFFFF;spacing=5;fontStyle=1;fillColor=#b0e3e6;sketch=0;labelBorderColor=none;html=1;endArrow=none;endFill=0;" parent="1" source="1771" target="1772" edge="1">
          <mxGeometry relative="1" as="geometry" />
        </mxCell>
        <mxCell id="1774" value="" style="rounded=0;shadow=1;labelBackgroundColor=none;strokeColor=none;strokeWidth=5;fillColor=#61c6ce;fontFamily=Helvetica;fontSize=19;fontColor=#FFFFFF;align=center;spacing=5;fontStyle=0;arcSize=7;perimeterSpacing=2;sketch=0;labelBorderColor=none;whiteSpace=wrap;html=1;" parent="1" vertex="1">
          <mxGeometry x="2670" y="680" width="150" height="60" as="geometry" />
        </mxCell>
        <mxCell id="1775" value="" style="edgeStyle=none;rounded=0;jumpStyle=none;shadow=1;labelBackgroundColor=none;startArrow=classic;startFill=1;jettySize=auto;orthogonalLoop=1;strokeColor=#12AAB5;strokeWidth=5;fontFamily=Helvetica;fontSize=19;fontColor=#FFFFFF;spacing=5;fontStyle=1;fillColor=#b0e3e6;sketch=0;labelBorderColor=none;html=1;endArrow=none;endFill=0;" parent="1" source="1771" target="1774" edge="1">
          <mxGeometry relative="1" as="geometry" />
        </mxCell>
        <mxCell id="1776" value="" style="rounded=0;shadow=1;labelBackgroundColor=none;strokeColor=none;strokeWidth=5;fillColor=#61c6ce;fontFamily=Helvetica;fontSize=19;fontColor=#FFFFFF;align=center;spacing=5;fontStyle=0;arcSize=7;perimeterSpacing=2;sketch=0;labelBorderColor=none;whiteSpace=wrap;html=1;" parent="1" vertex="1">
          <mxGeometry x="2670" y="570" width="150" height="60" as="geometry" />
        </mxCell>
        <mxCell id="1777" value="" style="edgeStyle=none;rounded=0;jumpStyle=none;shadow=1;labelBackgroundColor=none;startArrow=classic;startFill=1;jettySize=auto;orthogonalLoop=1;strokeColor=#12AAB5;strokeWidth=5;fontFamily=Helvetica;fontSize=19;fontColor=#FFFFFF;spacing=5;fontStyle=1;fillColor=#b0e3e6;sketch=0;labelBorderColor=none;html=1;endArrow=none;endFill=0;" parent="1" source="1771" target="1776" edge="1">
          <mxGeometry relative="1" as="geometry" />
        </mxCell>
        <mxCell id="1778" value="" style="rounded=0;shadow=1;labelBackgroundColor=none;strokeColor=none;strokeWidth=5;fillColor=#61c6ce;fontFamily=Helvetica;fontSize=19;fontColor=#FFFFFF;align=center;spacing=5;fontStyle=0;arcSize=7;perimeterSpacing=2;sketch=0;labelBorderColor=none;whiteSpace=wrap;html=1;" parent="1" vertex="1">
          <mxGeometry x="2540" y="490" width="150" height="60" as="geometry" />
        </mxCell>
        <mxCell id="1779" value="" style="edgeStyle=none;rounded=0;jumpStyle=none;shadow=1;labelBackgroundColor=none;startArrow=classic;startFill=1;jettySize=auto;orthogonalLoop=1;strokeColor=#12AAB5;strokeWidth=5;fontFamily=Helvetica;fontSize=19;fontColor=#FFFFFF;spacing=5;fontStyle=1;fillColor=#b0e3e6;sketch=0;labelBorderColor=none;html=1;endArrow=none;endFill=0;" parent="1" source="1771" target="1778" edge="1">
          <mxGeometry relative="1" as="geometry" />
        </mxCell>
        <mxCell id="P_W9UbjyP7Vqe00GMpRa-1780" value="GeoPortal CI" style="rounded=0;shadow=1;labelBackgroundColor=none;strokeColor=#0e8088;strokeWidth=5;fillColor=#93D8E6;fontFamily=Helvetica;fontSize=19;align=center;spacing=5;fontStyle=1;arcSize=7;perimeterSpacing=2;sketch=0;labelBorderColor=none;whiteSpace=wrap;html=1;" vertex="1" parent="1">
          <mxGeometry x="2460" y="1445" width="150" height="60" as="geometry" />
        </mxCell>
        <mxCell id="P_W9UbjyP7Vqe00GMpRa-1781" value="" style="rounded=0;shadow=1;labelBackgroundColor=none;strokeColor=#10739e;strokeWidth=5;fillColor=#b1ddf0;fontFamily=Helvetica;fontSize=19;align=center;spacing=5;fontStyle=0;arcSize=7;perimeterSpacing=2;sketch=0;labelBorderColor=none;whiteSpace=wrap;html=1;" vertex="1" parent="1">
          <mxGeometry x="2540" y="1584" width="150" height="60" as="geometry" />
        </mxCell>
        <mxCell id="P_W9UbjyP7Vqe00GMpRa-1782" value="" style="edgeStyle=none;rounded=0;jumpStyle=none;shadow=1;labelBackgroundColor=none;startArrow=classic;startFill=1;jettySize=auto;orthogonalLoop=1;strokeColor=#10739e;strokeWidth=5;fontFamily=Helvetica;fontSize=19;fontColor=#FFFFFF;spacing=5;fontStyle=1;fillColor=#b1ddf0;sketch=0;labelBorderColor=none;html=1;endArrow=none;endFill=0;" edge="1" parent="1" source="P_W9UbjyP7Vqe00GMpRa-1780" target="P_W9UbjyP7Vqe00GMpRa-1781">
          <mxGeometry relative="1" as="geometry" />
        </mxCell>
        <mxCell id="P_W9UbjyP7Vqe00GMpRa-1783" value="" style="rounded=0;shadow=1;labelBackgroundColor=none;strokeColor=#10739e;strokeWidth=5;fillColor=#b1ddf0;fontFamily=Helvetica;fontSize=19;align=center;spacing=5;fontStyle=0;arcSize=7;perimeterSpacing=2;sketch=0;labelBorderColor=none;whiteSpace=wrap;html=1;" vertex="1" parent="1">
          <mxGeometry x="2670" y="1494" width="150" height="60" as="geometry" />
        </mxCell>
        <mxCell id="P_W9UbjyP7Vqe00GMpRa-1784" value="" style="edgeStyle=none;rounded=0;jumpStyle=none;shadow=1;labelBackgroundColor=none;startArrow=classic;startFill=1;jettySize=auto;orthogonalLoop=1;strokeColor=#10739e;strokeWidth=5;fontFamily=Helvetica;fontSize=19;fontColor=#FFFFFF;spacing=5;fontStyle=1;fillColor=#b1ddf0;sketch=0;labelBorderColor=none;html=1;endArrow=none;endFill=0;" edge="1" parent="1" source="P_W9UbjyP7Vqe00GMpRa-1780" target="P_W9UbjyP7Vqe00GMpRa-1783">
          <mxGeometry relative="1" as="geometry" />
        </mxCell>
        <mxCell id="P_W9UbjyP7Vqe00GMpRa-1785" value="" style="rounded=0;shadow=1;labelBackgroundColor=none;strokeColor=#10739e;strokeWidth=5;fillColor=#b1ddf0;fontFamily=Helvetica;fontSize=19;align=center;spacing=5;fontStyle=0;arcSize=7;perimeterSpacing=2;sketch=0;labelBorderColor=none;whiteSpace=wrap;html=1;" vertex="1" parent="1">
          <mxGeometry x="2670" y="1384" width="150" height="60" as="geometry" />
        </mxCell>
        <mxCell id="P_W9UbjyP7Vqe00GMpRa-1786" value="" style="edgeStyle=none;rounded=0;jumpStyle=none;shadow=1;labelBackgroundColor=none;startArrow=classic;startFill=1;jettySize=auto;orthogonalLoop=1;strokeColor=#10739e;strokeWidth=5;fontFamily=Helvetica;fontSize=19;fontColor=#FFFFFF;spacing=5;fontStyle=1;fillColor=#b1ddf0;sketch=0;labelBorderColor=none;html=1;endArrow=none;endFill=0;" edge="1" parent="1" source="P_W9UbjyP7Vqe00GMpRa-1780" target="P_W9UbjyP7Vqe00GMpRa-1785">
          <mxGeometry relative="1" as="geometry" />
        </mxCell>
        <mxCell id="P_W9UbjyP7Vqe00GMpRa-1787" value="" style="rounded=0;shadow=1;labelBackgroundColor=none;strokeColor=#10739e;strokeWidth=5;fillColor=#b1ddf0;fontFamily=Helvetica;fontSize=19;align=center;spacing=5;fontStyle=0;arcSize=7;perimeterSpacing=2;sketch=0;labelBorderColor=none;whiteSpace=wrap;html=1;" vertex="1" parent="1">
          <mxGeometry x="2540" y="1304" width="150" height="60" as="geometry" />
        </mxCell>
        <mxCell id="P_W9UbjyP7Vqe00GMpRa-1788" value="" style="edgeStyle=none;rounded=0;jumpStyle=none;shadow=1;labelBackgroundColor=none;startArrow=classic;startFill=1;jettySize=auto;orthogonalLoop=1;strokeColor=#10739e;strokeWidth=5;fontFamily=Helvetica;fontSize=19;fontColor=#FFFFFF;spacing=5;fontStyle=1;fillColor=#b1ddf0;sketch=0;labelBorderColor=none;html=1;endArrow=none;endFill=0;" edge="1" parent="1" source="P_W9UbjyP7Vqe00GMpRa-1780" target="P_W9UbjyP7Vqe00GMpRa-1787">
          <mxGeometry relative="1" as="geometry" />
        </mxCell>
        <mxCell id="P_W9UbjyP7Vqe00GMpRa-1790" value="" style="edgeStyle=none;rounded=0;jumpStyle=none;shadow=1;labelBackgroundColor=none;startArrow=none;startFill=0;endArrow=classic;endFill=1;jettySize=auto;orthogonalLoop=1;strokeColor=#2F5B7C;strokeWidth=5;fontFamily=Helvetica;fontSize=19;fontColor=#23445D;spacing=5;sketch=0;labelBorderColor=none;html=1;" edge="1" parent="1" source="1749" target="P_W9UbjyP7Vqe00GMpRa-1780">
          <mxGeometry relative="1" as="geometry">
            <mxPoint x="1969.5355932203388" y="1112" as="sourcePoint" />
            <mxPoint x="1807.8881355932203" y="1338" as="targetPoint" />
          </mxGeometry>
        </mxCell>
        <mxCell id="P_W9UbjyP7Vqe00GMpRa-1791" value="" style="edgeStyle=none;rounded=0;jumpStyle=none;shadow=1;labelBackgroundColor=none;startArrow=classic;startFill=1;endArrow=none;endFill=0;jettySize=auto;orthogonalLoop=1;strokeColor=#2F5B7C;strokeWidth=5;fontFamily=Helvetica;fontSize=19;fontColor=#23445D;spacing=5;sketch=0;labelBorderColor=none;html=1;" edge="1" parent="1" target="P_W9UbjyP7Vqe00GMpRa-1795" source="1749">
          <mxGeometry relative="1" as="geometry">
            <mxPoint x="2547.5074626865667" y="1120" as="sourcePoint" />
          </mxGeometry>
        </mxCell>
        <mxCell id="P_W9UbjyP7Vqe00GMpRa-1792" value="" style="edgeStyle=none;rounded=0;jumpStyle=none;shadow=1;labelBackgroundColor=none;startArrow=classic;startFill=1;endArrow=none;endFill=0;jettySize=auto;orthogonalLoop=1;strokeColor=#1699D3;strokeWidth=5;fontFamily=Helvetica;fontSize=19;fontColor=#FFFFFF;spacing=5;sketch=0;labelBorderColor=none;html=1;" edge="1" parent="1" source="P_W9UbjyP7Vqe00GMpRa-1795" target="P_W9UbjyP7Vqe00GMpRa-1798">
          <mxGeometry relative="1" as="geometry" />
        </mxCell>
        <mxCell id="P_W9UbjyP7Vqe00GMpRa-1793" value="" style="edgeStyle=none;rounded=0;jumpStyle=none;shadow=1;labelBackgroundColor=none;startArrow=classic;startFill=1;endArrow=none;endFill=0;jettySize=auto;orthogonalLoop=1;strokeColor=#1699D3;strokeWidth=5;fontFamily=Helvetica;fontSize=19;fontColor=#FFFFFF;spacing=5;sketch=0;labelBorderColor=none;html=1;" edge="1" parent="1" source="P_W9UbjyP7Vqe00GMpRa-1795" target="P_W9UbjyP7Vqe00GMpRa-1797">
          <mxGeometry relative="1" as="geometry" />
        </mxCell>
        <mxCell id="P_W9UbjyP7Vqe00GMpRa-1794" value="" style="edgeStyle=none;rounded=0;jumpStyle=none;shadow=1;labelBackgroundColor=none;startArrow=classic;startFill=1;endArrow=none;endFill=0;jettySize=auto;orthogonalLoop=1;strokeColor=#1699D3;strokeWidth=5;fontFamily=Helvetica;fontSize=19;fontColor=#FFFFFF;spacing=5;sketch=0;labelBorderColor=none;html=1;" edge="1" parent="1" source="P_W9UbjyP7Vqe00GMpRa-1795" target="P_W9UbjyP7Vqe00GMpRa-1796">
          <mxGeometry relative="1" as="geometry" />
        </mxCell>
        <mxCell id="P_W9UbjyP7Vqe00GMpRa-1795" value="SUP" style="rounded=0;shadow=1;labelBackgroundColor=none;strokeColor=none;strokeWidth=5;fillColor=#1699d3;fontFamily=Helvetica;fontSize=19;fontColor=#FFFFFF;align=center;spacing=5;fontStyle=1;arcSize=7;perimeterSpacing=2;sketch=0;labelBorderColor=none;whiteSpace=wrap;html=1;" vertex="1" parent="1">
          <mxGeometry x="1911" y="1444" width="150" height="60" as="geometry" />
        </mxCell>
        <mxCell id="P_W9UbjyP7Vqe00GMpRa-1796" value="" style="rounded=0;shadow=1;labelBackgroundColor=none;strokeColor=none;strokeWidth=5;fillColor=#64bbe2;fontFamily=Helvetica;fontSize=19;fontColor=#FFFFFF;align=center;spacing=5;arcSize=7;perimeterSpacing=2;sketch=0;labelBorderColor=none;whiteSpace=wrap;html=1;" vertex="1" parent="1">
          <mxGeometry x="2111" y="1524" width="150" height="60" as="geometry" />
        </mxCell>
        <mxCell id="P_W9UbjyP7Vqe00GMpRa-1797" value="" style="rounded=0;shadow=1;labelBackgroundColor=none;strokeColor=none;strokeWidth=5;fillColor=#64bbe2;fontFamily=Helvetica;fontSize=19;fontColor=#FFFFFF;align=center;spacing=5;arcSize=7;perimeterSpacing=2;sketch=0;labelBorderColor=none;whiteSpace=wrap;html=1;" vertex="1" parent="1">
          <mxGeometry x="1911" y="1590" width="150" height="60" as="geometry" />
        </mxCell>
        <mxCell id="P_W9UbjyP7Vqe00GMpRa-1798" value="" style="rounded=0;shadow=1;labelBackgroundColor=none;strokeColor=none;strokeWidth=5;fillColor=#64bbe2;fontFamily=Helvetica;fontSize=19;fontColor=#FFFFFF;align=center;spacing=5;arcSize=7;perimeterSpacing=2;sketch=0;labelBorderColor=none;whiteSpace=wrap;html=1;" vertex="1" parent="1">
          <mxGeometry x="1711" y="1524" width="150" height="60" as="geometry" />
        </mxCell>
      </root>
    </mxGraphModel>
  </diagram>
</mxfile>
